<svg id="Group_235" data-name="Group 235" xmlns="http://www.w3.org/2000/svg" width="18.027" height="8.089" viewBox="0 0 18.027 8.089">
  <path id="Path_176" data-name="Path 176" d="M926.3,592.9a12.433,12.433,0,0,0-8.888-3.7h-.035l-.033,0a12.428,12.428,0,0,0-8.819,3.7l-.072.072a.311.311,0,1,0,.442.438l.072-.072a11.809,11.809,0,0,1,5.866-3.236,4.046,4.046,0,1,0,5.057-.023,11.808,11.808,0,0,1,5.968,3.259.311.311,0,1,0,.442-.438Zm-5.5.342a3.422,3.422,0,1,1-3.455-3.421h.045A3.426,3.426,0,0,1,920.8,593.244Z" transform="translate(-908.363 -589.2)" fill="#999"/>
  <path id="Path_177" data-name="Path 177" d="M961.88,603.007a.311.311,0,0,0-.311.311,1.867,1.867,0,1,1-1.867-1.867.311.311,0,1,0,0-.622,2.489,2.489,0,1,0,2.489,2.489A.311.311,0,0,0,961.88,603.007Z" transform="translate(-950.68 -599.274)" fill="#999"/>
</svg>
